<svg xmlns="http://www.w3.org/2000/svg" width="22" height="22" viewBox="0 0 22 22" fill="none">
<path d="M14.2817 10.9999C14.2817 12.8149 12.815 14.2816 11 14.2816C9.18499 14.2816 7.71832 12.8149 7.71832 10.9999C7.71832 9.18493 9.18499 7.71826 11 7.71826C12.815 7.71826 14.2817 9.18493 14.2817 10.9999Z" stroke="#A9AAAC" stroke-width="1.5" stroke-linecap="round" stroke-linejoin="round" />
<path d="M11 18.5807C14.2359 18.5807 17.2517 16.6741 19.3509 13.3741C20.1759 12.0816 20.1759 9.90908 19.3509 8.61658C17.2517 5.31658 14.2359 3.40991 11 3.40991C7.76421 3.40991 4.74837 5.31658 2.64921 8.61658C1.82421 9.90908 1.82421 12.0816 2.64921 13.3741C4.74837 16.6741 7.76421 18.5807 11 18.5807Z" stroke="#6C6C6C" stroke-width="1.5" stroke-linecap="round" stroke-linejoin="round" />
<line x1="4" y1="20" x2="20" y2="4" stroke="black" stroke-width="2" /></svg>